# AST/ASF file generated using VICON BodyLanguage
# -----------------------------------------------
:version 1.10
:name VICON
:units
  mass 1.0
  length 0.45
  angle deg
:documentation
   .ast/.asf automatically generated from VICON data using
   VICON BodyBuilder and BodyLanguage model FoxedUp or BRILLIANT.MOD
:root
   order TX TY TZ RX RY RZ
   axis XYZ
   position 0 0 0  
   orientation 0 0 0 
:bonedata
  begin
     id 1 
     name lhipjoint
     direction 0.499407 -0.589134 0.635228 
     length 2.99786 
     axis 0 0 0  XYZ
  end
  begin
     id 2 
     name lfemur
     direction 0.34202 -0.939693 0  
     length 6.89561  
     axis 0 0 20  XYZ
    dof rx ry rz
    limits (-160.0 20.0)
           (-70.0 70.0)
           (-60.0 70.0)
  end
  begin
     id 3 
     name ltibia
     direction 0.34202 -0.939693 0   
     length 8.00494   
     axis 0 0 20   XYZ
    dof rx
    limits (-10.0 170.0)
  end
  begin
     id 4 
     name lfoot
     direction 0.0680929 -0.194353 0.978565   
     length 2.06695   
     axis -90 7.62852e-016 20   XYZ
    dof rx rz
    limits (-45.0 90.0)
           (-70.0 20.0)
  end
  begin
     id 5 
     name ltoes
     direction 1.5346e-011 -4.21731e-011 1   
     length 1.04539   
     axis -90 7.62852e-016 20   XYZ
    dof rx
    limits (-90.0 20.0)
  end
  begin
     id 6 
     name rhipjoint
     direction -0.347526 -0.63762 0.687508   
     length 2.76989  
     axis 0 0 0  XYZ 
  end
  begin
     id 7 
     name rfemur
     direction -0.34202 -0.939693 0   
     length 6.97892   
     axis 0 0 -20   XYZ
    dof rx ry rz
    limits (-160.0 20.0)
           (-70.0 70.0)
           (-70.0 60.0)
  end
  begin
     id 8 
     name rtibia
     direction -0.34202 -0.939693 0   
     length 7.77056   
     axis 0 0 -20   XYZ
    dof rx
    limits (-10.0 170.0)
 end
 begin
     id 9 
     name rfoot
     direction -0.102685 -0.282124 0.953867   
     length 2.15099  
     axis -90 -7.62852e-016 -20   XYZ
    dof rx rz
    limits (-45.0 90.0)
           (-20.0 70.0)
  end
  begin
     id 10 
     name rtoes
     direction -0.000106751 -0.00118973 0.999999   
     length 1.0765   
     axis -90 -7.62852e-016 -20   XYZ
    dof rx
    limits (-90.0 20.0)
  end
  begin
     id 11 
     name lowerback
     direction -0.0190651 0.988667 0.148909   
     length 1.90627   
     axis 0 0 0   XYZ
    dof rx ry rz
    limits (-20.0 45.0)
           (-30.0 30.0)
           (-30.0 30.0)
  end
  begin
     id 12 
     name upperback
     direction -0.0180344 0.995767 -0.0901298   
     length 1.88167   
     axis 0 0 0   XYZ
    dof rx ry rz
    limits (-20.0 45.0)
           (-30.0 30.0)
           (-30.0 30.0)
  end
  begin
     id 13 
     name thorax
     direction -0.00329861 0.986394 -0.164366   
     length 1.91528   
     axis 0 0 0   XYZ
    dof rx ry rz
    limits (-20.0 45.0)
           (-30.0 30.0)
           (-30.0 30.0)
  end
  begin
     id 14 
     name lowerneck
     direction -0.0177752 0.978637 -0.204826   
     length 2.09812   
     axis 0 0 0   XYZ
    dof rx ry rz
    limits (-20.0 45.0)
           (-30.0 30.0)
           (-30.0 30.0)
  end
  begin
     id 15 
     name upperneck
     direction 0.108032 0.994134 0.00511541   
     length 2.11937   
     axis 0 0 0   XYZ
    dof rx ry rz
    limits (-20.0 45.0)
           (-30.0 30.0)
           (-30.0 30.0)
  end
  begin
     id 16
     name head
     direction 0.0423659 0.998938 0.0181058  
     length 2.14816  
     axis 0 0 0   XYZ
    dof rx ry rz
    limits (-20.0 45.0)
           (-30.0 30.0)
           (-30.0 30.0)
  end
  begin
     id 17 
     name lclavicle
     direction 0.869509 0.396908 0.293968  
     length 4.73713  
     axis 0 0 0   XYZ
    dof ry rz
    limits (-20.0 10.0)
           (0.0 20.0)
  end
  begin
     id 18 
     name lhumerus
     direction 1 -4.49e-011 3.63829e-027   
     length 4.72096   
     axis 180 -30 -90   XYZ
    dof rx ry rz
    limits (-60.0 90.0)
           (-90.0 90.0)
           (-90.0 90.0)
  end
  begin
     id 19
     name lradius
     direction 1 -4.48932e-011 7.19196e-027   
     length 3.18148   
     axis 180 -30 -90   XYZ
    dof rx
    limits (-10.0 170.0)
  end
  begin
     id 20
     name lwrist
     direction 1 -4.48995e-011 1.85462e-026   
     length 1.59074   
     axis -1.20349e-014 90 90   XYZ
    dof ry
    limits (-180.0 0.0)
 end
  begin
     id 21 
     name lhand
     direction 1 -4.48943e-011 3.70924e-026   
     length 0.848715   
     axis -2.36681e-014 90 90   XYZ
    dof rx rz
    limits (-90.0 90.0)
           (-45.0 45.0)
  end
  begin
     id 22 
     name lfingers
     direction 1 -4.48949e-011 7.41849e-026   
     length 0.684256   
     axis -4.73363e-014 90 90   XYZ
    dof rx
    limits (0.0 90.0)
  end
  begin
     id 23
     name lthumb
     direction 0.707107 -6.35018e-011 0.707107   
     length 0.982458   
     axis -90 45 2.85299e-015   XYZ
    dof rx rz
    limits (-45.0 45.0)
           (-45.0 45.0)
  end
  begin
     id 24 
     name rclavicle
     direction -0.923214 0.372787 0.0932992   
     length 4.28107  
     axis 0 0 0   XYZ 
    dof ry rz
    limits (-10.0 20.0)
           (-20.0 0.0)
  end
  begin
     id 25 
     name rhumerus
     direction -1 -4.48968e-011 6.59881e-018  
     length 4.76918   
     axis 180 30 90   XYZ
    dof rx ry rz
    limits (-90.0 60.0)
           (-90.0 90.0)
           (-90.0 90.0)
  end
  begin
     id 26 
     name rradius
     direction -1 0.000264575 -0.000152753   
     length 3.36438   
     axis 180 30 90   XYZ
    dof rx
    limits (-10.0 170.0)
  end
  begin
     id 27 
     name rwrist
     direction -1 -4.86632e-005 -0.00030086   
     length 1.68219   
     axis -1.20349e-014 -90 -90   XYZ
    dof ry
    limits (-180.0 0.0)
  end
  begin
     id 28
     name rhand
     direction -1 -4.48915e-011 3.70924e-026   
     length 0.767694   
     axis -2.36681e-014 -90 -90   XYZ
    dof rx rz
    limits (-90.0 90.0)
           (-45.0 45.0)
  end
  begin
     id 29
     name rfingers
     direction -1 -4.49015e-011 7.41849e-026   
     length 0.618935   
     axis -4.73363e-014 -90 -90   XYZ
    dof rx
    limits (0.0 90.0)
  end
  begin
     id 30
     name rthumb
     direction -0.707107 -6.34859e-011 0.707107   
     length 0.88867   
     axis -90 -45 -2.85299e-015   XYZ
    dof rx rz
    limits (-45.0 45.0)
           (-45.0 45.0)
  end
:hierarchy
  begin
    root lhipjoint rhipjoint lowerback
    lhipjoint lfemur
    lfemur ltibia
    ltibia lfoot
    lfoot ltoes
    rhipjoint rfemur
    rfemur rtibia
    rtibia rfoot
    rfoot rtoes
    lowerback upperback
    upperback thorax
    thorax lowerneck lclavicle rclavicle
    lowerneck upperneck
    upperneck head
    lclavicle lhumerus
    lhumerus lradius
    lradius lwrist
    lwrist lhand lthumb
    lhand lfingers
    rclavicle rhumerus
    rhumerus rradius
    rradius rwrist
    rwrist rhand rthumb
    rhand rfingers
  end

#!OML:ASF C:\Documents and Settings\Administrator\Desktop\New Folder (2)\VR_Jason.ASF
:FULLY-SPECIFIED
:DEGREES
568
root 1.45422 17.5541 -0.471785 10.4361 0.270038 1.8063
lowerback -22.0585 1.73813 -1.53549
upperback 7.10391 3.29609 -2.26636
thorax 20.5601 1.39547 -0.428812
lowerneck 24.3957 -1.62238 -4.82901
upperneck 1.18625 -2.77444 10.5253
head -3.23368 -1.98967 4.37064
rclavicle 2.28602e-015 2.34566e-014
rhumerus 5.13219 -11.6156 -53.3516
rradius 110.582
rwrist -41.4125
rhand 52.9255 1.15829
rfingers 7.12502
rthumb 71.7378 11.9521
lclavicle 2.28602e-015 2.34566e-014
lhumerus 14.5146 21.9269 55.1768
lradius 85.5128
lwrist 60.404
lhand 27.5074 36.4433
lfingers 7.12502
lthumb 51.4527 56.8686
rfemur -35.0966 -6.56775 5.28779
rtibia 49.9376
rfoot 0.891771 -26.3473
rtoes 5.40183
lfemur -22.1671 3.46911 -23.9263
ltibia 29.7258
lfoot -19.8223 7.54523
ltoes -13.4975
569
root 1.52669 17.5609 -0.500844 10.3592 0.391366 1.58487
lowerback -21.8145 1.69932 -1.63664
upperback 7.07069 3.25603 -2.22644
thorax 20.3613 1.36584 -0.350207
lowerneck 24.4584 -1.67277 -4.55915
upperneck 1.14841 -2.76625 10.4785
head -3.25845 -1.98544 4.31333
rclavicle -7.7526e-015 2.10712e-014
rhumerus 5.77524 -12.0828 -53.9936
rradius 110.152
rwrist -41.2304
rhand 51.7899 2.59992
rfingers 7.12502
rthumb 71.0769 10.6479
lclavicle -7.7526e-015 2.10712e-014
lhumerus 14.8048 21.5976 55.0475
lradius 84.8629
lwrist 60.4034
lhand 26.1947 36.2426
lfingers 7.12502
lthumb 50.2557 57.3301
rfemur -36.848 -7.20058 6.17785
rtibia 51.6367
rfoot 0.50786 -25.5612
rtoes 5.39807
lfemur -22.2251 3.56567 -23.9399
ltibia 29.7061
lfoot -19.6983 7.38956
ltoes -12.44
570
root 1.60519 17.5698 -0.524193 10.3413 0.390702 1.45232
lowerback -21.7442 1.73222 -1.64948
upperback 7.05135 3.31201 -2.28078
thorax 20.2986 1.39406 -0.385522
lowerneck 24.7199 -1.72248 -4.22554
upperneck 0.871948 -2.72535 10.4134
head -3.38801 -1.97352 4.24562
rclavicle 2.34566e-014 -7.95139e-015
rhumerus 6.25098 -12.4554 -54.457
rradius 109.732
rwrist -41.0787
rhand 50.2378 3.36551
rfingers 7.12502
rthumb 70.1065 7.97331
lclavicle 2.34566e-014 -7.95139e-015
lhumerus 15.2307 21.2199 55.0326
lradius 84.3304
lwrist 60.8402
lhand 24.4255 36.1769
lfingers 7.12502
lthumb 48.6332 58.0888
rfemur -38.7777 -8.06342 7.0949
rtibia 53.1349
rfoot 1.09021 -24.3675
rtoes 3.41134
lfemur -22.2827 3.56294 -24.111
ltibia 29.6772
lfoot -19.5041 7.66338
ltoes -13.1924
571
root 1.68058 17.5819 -0.548685 10.4212 0.343156 1.27188
lowerback -21.7472 1.78873 -1.63211
upperback 6.99529 3.38448 -2.29846
thorax 20.2312 1.42941 -0.388075
lowerneck 25.1254 -1.7554 -3.98643
upperneck 0.458008 -2.67752 10.3714
head -3.57956 -1.96591 4.20586
rclavicle 1.98785e-016 -9.54166e-015
rhumerus 6.71715 -12.7503 -54.7351
rradius 109.159
rwrist -41.0339
rhand 49.0328 3.98301
rfingers 7.12502
rthumb 69.3061 6.15415
lclavicle 1.98785e-016 -9.54166e-015
lhumerus 15.8838 21.2706 55.3291
lradius 83.7136
lwrist 60.2706
lhand 23.6894 35.8337
lfingers 7.12502
lthumb 47.9552 58.0674
rfemur -40.8462 -9.02434 8.28322
rtibia 54.3803
rfoot 1.6128 -23.5596
rtoes 1.13898
lfemur -22.4667 3.54096 -24.2299
ltibia 29.6597
lfoot -19.5159 7.71521
ltoes -13.8057
572
root 1.74551 17.585 -0.573276 10.4965 0.39518 0.98804
lowerback -21.7941 1.78596 -1.64669
upperback 7.05335 3.37774 -2.23688
thorax 20.3278 1.41741 -0.310497
lowerneck 24.4479 -1.89659 -4.00961
upperneck 0.993729 -2.89017 10.5317
head -3.3032 -2.05309 4.25467
rclavicle 2.8625e-014 -1.47101e-014
rhumerus 7.34875 -13.1085 -54.9153
rradius 108.551
rwrist -41.1946
rhand 47.426 4.35007
rfingers 7.12502
rthumb 68.1834 3.56472
lclavicle 2.8625e-014 -1.47101e-014
lhumerus 16.6842 21.3289 55.6928
lradius 83.1071
lwrist 59.7306
lhand 23.0245 35.5343
lfingers 7.12502
lthumb 47.3415 58.0486
rfemur -42.6696 -9.91023 9.74233
rtibia 55.3893
rfoot 1.14377 -23.1444
rtoes 1.79295
lfemur -22.6572 3.58212 -24.1666
ltibia 29.6232
lfoot -19.3853 7.32949
ltoes -12.4117
573
root 1.8095 17.5889 -0.59315 10.5396 0.484999 0.671883
lowerback -21.866 1.77498 -1.6212
upperback 7.16064 3.35165 -2.17902
thorax 20.5063 1.40138 -0.26556
lowerneck 23.4204 -2.09289 -3.76333
upperneck 1.61863 -3.12415 10.4052
head -2.95281 -2.12273 4.15806
rclavicle 2.38542e-015 2.38542e-014
rhumerus 7.99854 -13.4947 -55.0129
rradius 108.022
rwrist -41.4
rhand 46.1736 4.52495
rfingers 7.12502
rthumb 67.2697 1.64734
lclavicle 2.38542e-015 2.38542e-014
lhumerus 17.3537 21.3574 55.8599
lradius 82.7014
lwrist 59.6284
lhand 22.3456 35.2969
lfingers 7.12502
lthumb 46.7136 58.0883
rfemur -44.3319 -10.7352 11.2509
rtibia 56.1691
rfoot 1.2283 -22.6063
rtoes 3.20845
lfemur -22.7906 3.63456 -24.0557
ltibia 29.5673
lfoot -19.1545 7.04355
ltoes -11.0491
574
root 1.87457 17.6021 -0.615238 10.5689 0.459948 0.437659
lowerback -21.8412 1.79808 -1.63548
upperback 7.15065 3.3835 -2.16558
thorax 20.4767 1.41224 -0.230963
lowerneck 23.4013 -2.05372 -3.82126
upperneck 1.60709 -3.06633 10.8057
head -2.95784 -2.11685 4.29064
rclavicle -3.29983e-014 4.13472e-014
rhumerus 8.37477 -13.7028 -55.0618
rradius 107.446
rwrist -41.4375
rhand 45.6674 5.27907
rfingers 7.12502
rthumb 66.8919 1.60467
lclavicle -3.29983e-014 4.13472e-014
lhumerus 17.6614 21.3003 55.8035
lradius 82.4738
lwrist 59.7516
lhand 21.7962 35.1665
lfingers 7.12502
lthumb 46.2046 58.1754
rfemur -46.232 -11.4769 12.6538
rtibia 56.7648
rfoot 2.5002 -21.7628
rtoes 2.93166
lfemur -22.8644 3.89152 -24.0745
ltibia 29.526
lfoot -19.1343 7.00505
ltoes -11.4642
